# xmcd CD database file
#
# Track frame offsets:
#	150
#	12965
#	35405
#	57712
#	75512
#	94612
#	112002
#	141815
#	163470
#	202142
#
# Disc length: 2899 seconds
#
# Revision: 0
# Processed by: cddbd v1.5.1PL0 Copyright (c) Steve Scherf et al.
# Submitted via: CDex 1.51
#
DISCID=8c0b510a
DTITLE=jacob armen - drum fever
DYEAR=1995
DGENRE=Jazz
TTITLE0=gothic metal
TTITLE1=el mambo tigre
TTITLE2=jungle jazz
TTITLE3=crazy fingers
TTITLE4=nowhere to be found/rainbow
TTITLE5=leias dance
TTITLE6=armenian spice
TTITLE7=salsa and peppers
TTITLE8=giant steps
TTITLE9=crash of the planet earth
EXTD=YEAR: 1995
EXTT0=
EXTT1=
EXTT2=
EXTT3=
EXTT4=
EXTT5=
EXTT6=
EXTT7=
EXTT8=
EXTT9=
PLAYORDER=
